<svg viewBox="0 0 820 300" xmlns="http://www.w3.org/2000/svg" font-family="ui-monospace, SFMono-Regular, Menlo, Consolas, monospace">
  <rect x="1" y="1" width="818" height="298" rx="12" fill="#0d1117" stroke="#30363d" stroke-width="1"/>
  <path d="M1 13 a12 12 0 0 1 12 -12 h794 a12 12 0 0 1 12 12 v27 h-818 z" fill="#161b22"/>
  <circle cx="24" cy="20" r="6" fill="#ff5f56"/>
  <circle cx="44" cy="20" r="6" fill="#ffbd2e"/>
  <circle cx="64" cy="20" r="6" fill="#27c93f"/>
  <text x="410" y="25" text-anchor="middle" font-size="13" fill="#8b949e">ryan@dev: ~</text>

  <clipPath id="c1"><rect x="24" y="62" width="0" height="24"><animate attributeName="width" from="0" to="190" dur="0.9s" begin="0.3s" fill="freeze"/></rect></clipPath>
  <clipPath id="c2"><rect x="24" y="96" width="0" height="24"><animate attributeName="width" from="0" to="320" dur="1.6s" begin="1.5s" fill="freeze"/></rect></clipPath>
  <clipPath id="c3"><rect x="24" y="130" width="0" height="24"><animate attributeName="width" from="0" to="260" dur="1.3s" begin="3.4s" fill="freeze"/></rect></clipPath>
  <clipPath id="c4"><rect x="24" y="164" width="0" height="24"><animate attributeName="width" from="0" to="420" dur="2.1s" begin="5.0s" fill="freeze"/></rect></clipPath>
  <clipPath id="c5"><rect x="24" y="198" width="0" height="24"><animate attributeName="width" from="0" to="230" dur="1.1s" begin="7.4s" fill="freeze"/></rect></clipPath>
  <clipPath id="c6"><rect x="24" y="232" width="0" height="24"><animate attributeName="width" from="0" to="245" dur="1.1s" begin="8.8s" fill="freeze"/></rect></clipPath>

  <text x="24" y="80" font-size="16" fill="#58a6ff" clip-path="url(#c1)">ryan@dev:~$ whoami</text>
  <text x="24" y="114" font-size="16" fill="#c9d1d9" clip-path="url(#c2)">Ryan, Backend &amp; Cloud Developer</text>
  <text x="24" y="148" font-size="16" fill="#58a6ff" clip-path="url(#c3)">ryan@dev:~$ cat stack.yaml</text>
  <text x="24" y="182" font-size="16" fill="#c9d1d9" clip-path="url(#c4)">Laravel . Go . Node.js . AWS . GCP . Docker</text>
  <text x="24" y="216" font-size="16" fill="#58a6ff" clip-path="url(#c5)">ryan@dev:~$ echo $MOTTO</text>
  <text x="24" y="250" font-size="16" fill="#39d353" clip-path="url(#c6)">fast, reliable, minimal.</text>

  <rect x="270" y="238" width="9" height="16" fill="#39d353">
    <animate attributeName="opacity" values="1;0;1" dur="1s" begin="9.9s" repeatCount="indefinite"/>
  </rect>
</svg>
